<?xml version="1.0" standalone="no"?>
<!DOCTYPE svg PUBLIC "-//W3C//DTD SVG 20010904//EN"
 "http://www.w3.org/TR/2001/REC-SVG-20010904/DTD/svg10.dtd">
<svg version="1.0" xmlns="http://www.w3.org/2000/svg"
 width="292.000000pt" height="144.000000pt" viewBox="0 0 292.000000 144.000000"
 preserveAspectRatio="xMidYMid meet">

<g transform="translate(0.000000,144.000000) scale(0.100000,-0.100000)"
fill="#000000" stroke="none">
<path d="M574 1190 c-97 -118 -194 -252 -189 -260 15 -24 38 -3 131 115 l99
125 23 -52 c12 -29 26 -55 31 -58 4 -3 16 -29 26 -58 17 -54 38 -73 57 -54 6
6 -2 35 -26 87 -20 43 -36 83 -36 90 0 7 -7 19 -16 26 -9 7 -19 22 -23 33 -9
24 -59 28 -77 6z"/>
<path d="M525 921 c-49 -23 -88 -65 -104 -110 -14 -43 -14 -171 0 -208 23 -62
100 -112 171 -113 54 0 118 28 118 51 0 17 -8 19 -62 19 -72 0 -122 24 -138
66 -6 14 -10 58 -10 98 0 86 19 119 78 137 31 9 44 7 85 -10 l47 -20 0 34 c0
30 -5 37 -40 55 -49 25 -93 25 -145 1z"/>
<path d="M832 809 c-58 -29 -77 -66 -76 -156 0 -83 17 -116 75 -145 74 -38
187 -6 222 62 25 50 18 156 -13 200 -43 61 -131 77 -208 39z m126 -69 c18 -17
22 -32 22 -78 0 -31 -4 -62 -8 -68 -13 -20 -54 -36 -77 -30 -42 11 -55 33 -55
96 0 51 3 61 26 79 34 27 64 27 92 1z"/>
<path d="M1594 805 c-29 -29 -34 -30 -34 -11 0 21 -17 29 -46 22 l-24 -6 0
-150 0 -150 25 -6 c50 -12 55 -3 55 101 0 82 3 98 20 115 20 20 26 22 65 24
15 1 21 9 23 35 6 55 -41 69 -84 26z"/>
<path d="M1773 815 c-37 -16 -53 -42 -53 -87 0 -46 18 -67 81 -97 61 -29 73
-55 35 -72 -24 -11 -37 -9 -99 16 -16 7 -18 3 -15 -26 3 -30 8 -36 43 -48 49
-17 102 -9 139 20 21 17 26 29 26 68 0 59 -28 91 -81 91 -27 0 -36 6 -46 27
-16 34 -16 41 2 59 13 13 20 13 60 -1 58 -19 55 -20 55 14 0 24 -6 31 -31 40
-42 14 -77 13 -116 -4z"/>
<path d="M2073 815 c-17 -7 -43 -30 -57 -51 -22 -32 -26 -50 -26 -106 0 -38 4
-68 9 -68 5 0 11 -12 13 -27 6 -56 122 -89 208 -60 27 9 35 17 35 37 0 27 -3
28 -81 15 -54 -9 -104 15 -104 50 0 25 1 25 88 25 48 0 93 4 101 9 18 12 9
103 -14 138 -32 48 -110 65 -172 38z m102 -61 c9 -9 15 -26 13 -38 -3 -18 -11
-21 -52 -24 -54 -4 -71 6 -62 36 12 37 73 53 101 26z"/>
<path d="M2383 815 c-37 -16 -53 -42 -53 -87 0 -46 18 -67 81 -97 61 -29 73
-55 35 -72 -24 -11 -37 -9 -99 16 -16 7 -18 3 -15 -25 3 -29 9 -35 44 -48 48
-18 101 -10 138 19 21 17 26 29 26 68 0 55 -20 79 -87 106 -23 9 -44 24 -47
32 -10 24 24 55 51 49 13 -3 34 -9 48 -12 22 -5 25 -3 25 19 0 42 -82 61 -147
32z"/>
<path d="M1137 814 c-4 -4 -7 -62 -7 -128 0 -133 7 -153 60 -181 40 -21 62
-19 104 10 44 30 42 30 49 4 4 -15 12 -20 29 -17 23 3 23 3 23 158 l0 155 -30
0 -30 0 -3 -107 c-3 -102 -4 -108 -29 -128 -51 -40 -93 -16 -93 55 0 25 -5 45
-12 47 -10 4 -9 13 1 44 20 61 12 88 -24 92 -17 2 -34 0 -38 -4z"/>
</g>
</svg>
